<?xml version="1.0" encoding="UTF-8"?>
<svg width="700pt" height="700pt" version="1.1" viewBox="0 0 700 700" xmlns="http://www.w3.org/2000/svg" xmlns:xlink="http://www.w3.org/1999/xlink">
 <defs>
  <symbol id="t" overflow="visible">
   <path d="m3.6562-0.21875c-0.1875 0.09375-0.38672 0.16797-0.59375 0.21875-0.19922 0.050781-0.40625 0.078125-0.625 0.078125-0.66797 0-1.1992-0.17969-1.5938-0.54688-0.38672-0.375-0.57812-0.87891-0.57812-1.5156 0-0.64453 0.19141-1.1484 0.57812-1.5156 0.39453-0.375 0.92578-0.5625 1.5938-0.5625 0.21875 0 0.42578 0.027344 0.625 0.078125 0.20703 0.054687 0.40625 0.125 0.59375 0.21875v0.82812c-0.1875-0.125-0.375-0.21875-0.5625-0.28125-0.17969-0.0625-0.37109-0.09375-0.57812-0.09375-0.36719 0-0.65625 0.12109-0.875 0.35938-0.21094 0.23047-0.3125 0.55469-0.3125 0.96875 0 0.40625 0.10156 0.73047 0.3125 0.96875 0.21875 0.23047 0.50781 0.34375 0.875 0.34375 0.20703 0 0.39844-0.023437 0.57812-0.078125 0.1875-0.0625 0.375-0.16016 0.5625-0.29688z"/>
  </symbol>
  <symbol id="b" overflow="visible">
   <path d="m2.6875-2.1719c-0.085938-0.039063-0.16797-0.070313-0.25-0.09375-0.085938-0.019531-0.16797-0.03125-0.25-0.03125-0.25 0-0.44531 0.085937-0.57812 0.25-0.125 0.15625-0.1875 0.38281-0.1875 0.67188v1.375h-0.96875v-2.9844h0.96875v0.48438c0.11328-0.19531 0.25-0.33594 0.40625-0.42188 0.16406-0.09375 0.35938-0.14062 0.57812-0.14062h0.10938c0.039063 0 0.09375 0.007812 0.15625 0.015625z"/>
  </symbol>
  <symbol id="a" overflow="visible">
   <path d="m3.4375-1.5v0.26562h-2.2344c0.03125 0.23047 0.11328 0.40234 0.25 0.51562 0.13281 0.10547 0.32812 0.15625 0.57812 0.15625 0.20703 0 0.41406-0.023438 0.625-0.078125 0.20703-0.0625 0.42188-0.15625 0.64062-0.28125v0.73438c-0.21875 0.09375-0.44531 0.16406-0.67188 0.20312-0.23047 0.039062-0.45312 0.0625-0.67188 0.0625-0.54297 0-0.96484-0.13281-1.2656-0.40625-0.30469-0.28125-0.45312-0.67188-0.45312-1.1719 0-0.47656 0.14453-0.85938 0.4375-1.1406 0.30078-0.28125 0.70703-0.42188 1.2188-0.42188 0.46875 0 0.84375 0.14062 1.125 0.42188s0.42188 0.66406 0.42188 1.1406zm-0.96875-0.32812c0-0.17578-0.058594-0.31641-0.17188-0.42188-0.10547-0.11328-0.24219-0.17188-0.40625-0.17188-0.1875 0-0.33984 0.054687-0.45312 0.15625-0.11719 0.10547-0.1875 0.25-0.21875 0.4375z"/>
  </symbol>
  <symbol id="f" overflow="visible">
   <path d="m1.7969-1.3438c-0.19922 0-0.35156 0.039062-0.45312 0.10938-0.09375 0.0625-0.14062 0.16406-0.14062 0.29688 0 0.11719 0.035156 0.21094 0.10938 0.28125 0.082031 0.0625 0.19531 0.09375 0.34375 0.09375 0.17578 0 0.32812-0.0625 0.45312-0.1875s0.1875-0.28516 0.1875-0.48438v-0.10938zm1.4688-0.35938v1.7031h-0.96875v-0.4375c-0.125 0.17969-0.27344 0.30859-0.4375 0.39062-0.15625 0.082031-0.35156 0.125-0.57812 0.125-0.3125 0-0.57031-0.085938-0.76562-0.26562-0.1875-0.1875-0.28125-0.42188-0.28125-0.70312 0-0.35156 0.11719-0.61328 0.35938-0.78125 0.23828-0.16406 0.61719-0.25 1.1406-0.25h0.5625v-0.0625c0-0.15625-0.0625-0.26562-0.1875-0.32812-0.11719-0.070312-0.29688-0.10938-0.54688-0.10938-0.21094 0-0.40234 0.023437-0.57812 0.0625-0.17969 0.042969-0.33984 0.10156-0.48438 0.17188v-0.71875c0.19531-0.050781 0.39844-0.085938 0.60938-0.10938 0.20703-0.03125 0.41406-0.046875 0.625-0.046875 0.53906 0 0.92969 0.10938 1.1719 0.32812 0.23828 0.21094 0.35938 0.55469 0.35938 1.0312z"/>
  </symbol>
  <symbol id="d" overflow="visible">
   <path d="m1.5-3.8438v0.85938h0.98438v0.67188h-0.98438v1.2812c0 0.13672 0.023438 0.23047 0.078125 0.28125 0.0625 0.042969 0.17578 0.0625 0.34375 0.0625h0.48438v0.6875h-0.8125c-0.38672 0-0.65625-0.078125-0.8125-0.23438s-0.23438-0.42188-0.23438-0.79688v-1.2812h-0.46875v-0.67188h0.46875v-0.85938z"/>
  </symbol>
  <symbol id="k" overflow="visible">
   <path d="m2.5-2.5469v-1.6094h0.95312v4.1562h-0.95312v-0.4375c-0.13672 0.17969-0.28125 0.30859-0.4375 0.39062-0.15625 0.082031-0.33984 0.125-0.54688 0.125-0.375 0-0.68359-0.14453-0.92188-0.4375-0.23047-0.28906-0.34375-0.67188-0.34375-1.1406 0-0.45703 0.11328-0.83203 0.34375-1.125 0.23828-0.28906 0.54688-0.4375 0.92188-0.4375 0.19531 0 0.375 0.042969 0.53125 0.125 0.16406 0.085938 0.31641 0.21484 0.45312 0.39062zm-0.64062 1.9375c0.20703 0 0.36328-0.070313 0.46875-0.21875 0.11328-0.15625 0.17188-0.37891 0.17188-0.67188 0-0.28125-0.058594-0.49219-0.17188-0.64062-0.10547-0.15625-0.26172-0.23438-0.46875-0.23438-0.19922 0-0.35547 0.078125-0.46875 0.23438-0.10547 0.14844-0.15625 0.35938-0.15625 0.64062 0 0.29297 0.050781 0.51562 0.15625 0.67188 0.11328 0.14844 0.26953 0.21875 0.46875 0.21875z"/>
  </symbol>
  <symbol id="j" overflow="visible">
   <path d="m2.0469-0.60938c0.20703 0 0.36328-0.070313 0.46875-0.21875 0.11328-0.15625 0.17188-0.37891 0.17188-0.67188 0-0.28125-0.058594-0.49219-0.17188-0.64062-0.10547-0.15625-0.26172-0.23438-0.46875-0.23438-0.19922 0-0.35547 0.078125-0.46875 0.23438-0.10547 0.14844-0.15625 0.35938-0.15625 0.64062 0 0.29297 0.050781 0.51562 0.15625 0.67188 0.11328 0.14844 0.26953 0.21875 0.46875 0.21875zm-0.625-1.9375c0.125-0.17578 0.26562-0.30469 0.42188-0.39062 0.16406-0.082031 0.35156-0.125 0.5625-0.125 0.36328 0 0.66406 0.14844 0.90625 0.4375 0.23828 0.29297 0.35938 0.66797 0.35938 1.125 0 0.46875-0.12109 0.85156-0.35938 1.1406-0.24219 0.29297-0.54297 0.4375-0.90625 0.4375-0.21094 0-0.39844-0.042969-0.5625-0.125-0.15625-0.082031-0.29688-0.21094-0.42188-0.39062v0.4375h-0.96875v-4.1562h0.96875z"/>
  </symbol>
  <symbol id="i" overflow="visible">
   <path d="m0.0625-2.9844h0.95312l0.8125 2.0156 0.6875-2.0156h0.95312l-1.2656 3.2656c-0.125 0.33203-0.27344 0.56641-0.4375 0.70312-0.16797 0.13281-0.39062 0.20312-0.67188 0.20312h-0.54688v-0.64062h0.29688c0.16406 0 0.28516-0.027344 0.35938-0.078125 0.070313-0.054688 0.12891-0.14062 0.17188-0.26562l0.03125-0.09375z"/>
  </symbol>
  <symbol id="e" overflow="visible">
   <path d="m0.45312-2.9844h0.96875v2.9844h-0.96875zm0-1.1719h0.96875v0.78125h-0.96875z"/>
  </symbol>
  <symbol id="h" overflow="visible">
   <path d="m2.875-2.8906v0.76562c-0.125-0.082031-0.25781-0.14453-0.39062-0.1875-0.13672-0.039062-0.27344-0.0625-0.40625-0.0625-0.27344 0-0.48047 0.078125-0.625 0.23438-0.14844 0.15625-0.21875 0.37109-0.21875 0.64062 0 0.28125 0.070313 0.5 0.21875 0.65625 0.14453 0.15625 0.35156 0.23438 0.625 0.23438 0.14453 0 0.28516-0.019531 0.42188-0.0625 0.13281-0.039063 0.25781-0.10938 0.375-0.20312v0.78125c-0.14844 0.0625-0.29688 0.10156-0.45312 0.125-0.15625 0.03125-0.3125 0.046875-0.46875 0.046875-0.54297 0-0.96484-0.13281-1.2656-0.40625-0.30469-0.28125-0.45312-0.67188-0.45312-1.1719 0-0.48828 0.14844-0.86719 0.45312-1.1406 0.30078-0.28125 0.72266-0.42188 1.2656-0.42188 0.15625 0 0.3125 0.015625 0.46875 0.046875 0.15625 0.023437 0.30469 0.0625 0.45312 0.125z"/>
  </symbol>
  <symbol id="c" overflow="visible">
   <path d="m1.875-2.375c-0.21094 0-0.37109 0.078125-0.48438 0.23438-0.10547 0.14844-0.15625 0.35938-0.15625 0.64062 0 0.29297 0.050781 0.51562 0.15625 0.67188 0.11328 0.14844 0.27344 0.21875 0.48438 0.21875 0.20703 0 0.36719-0.070313 0.48438-0.21875 0.11328-0.15625 0.17188-0.37891 0.17188-0.67188 0-0.28125-0.058594-0.49219-0.17188-0.64062-0.11719-0.15625-0.27734-0.23438-0.48438-0.23438zm0-0.6875c0.51953 0 0.92188 0.14062 1.2031 0.42188 0.28906 0.27344 0.4375 0.65234 0.4375 1.1406 0 0.5-0.14844 0.89062-0.4375 1.1719-0.28125 0.27344-0.68359 0.40625-1.2031 0.40625-0.51172 0-0.91406-0.13281-1.2031-0.40625-0.29297-0.28125-0.4375-0.67188-0.4375-1.1719 0-0.48828 0.14453-0.86719 0.4375-1.1406 0.28906-0.28125 0.69141-0.42188 1.2031-0.42188z"/>
  </symbol>
  <symbol id="g" overflow="visible">
   <path d="m3.4688-1.8281v1.8281h-0.96875v-1.3906c0-0.25781-0.007812-0.4375-0.015625-0.53125-0.011719-0.10156-0.03125-0.17578-0.0625-0.21875-0.03125-0.0625-0.085937-0.10938-0.15625-0.14062-0.0625-0.039062-0.13281-0.0625-0.20312-0.0625-0.21094 0-0.37109 0.078125-0.48438 0.23438-0.10547 0.15625-0.15625 0.37109-0.15625 0.64062v1.4688h-0.96875v-2.9844h0.96875v0.4375c0.13281-0.17578 0.28516-0.30469 0.45312-0.39062 0.16406-0.082031 0.34375-0.125 0.53125-0.125 0.34375 0 0.60156 0.10938 0.78125 0.32812 0.1875 0.21094 0.28125 0.51172 0.28125 0.90625z"/>
  </symbol>
  <symbol id="s" overflow="visible">
   <path d="m1.2188-1.5312-1.0781-1.4531h1l0.625 0.875 0.60938-0.875h1.0156l-1.0781 1.4531 1.125 1.5312h-1l-0.67188-0.9375-0.67188 0.9375h-1.0156z"/>
  </symbol>
  <symbol id="r" overflow="visible">
   <path d="m2.4219-4.1562v0.625h-0.51562c-0.13672 0-0.23438 0.027344-0.29688 0.078125-0.054687 0.054687-0.078125 0.13672-0.078125 0.25v0.21875h0.82812v0.67188h-0.82812v2.3125h-0.95312v-2.3125h-0.46875v-0.67188h0.46875v-0.21875c0-0.32031 0.085937-0.5625 0.26562-0.71875 0.1875-0.15625 0.47266-0.23438 0.85938-0.23438z"/>
  </symbol>
  <symbol id="q" overflow="visible">
   <path d="m3.2344-2.5c0.11328-0.17578 0.25391-0.3125 0.42188-0.40625 0.16406-0.10156 0.35156-0.15625 0.5625-0.15625 0.33203 0 0.58594 0.10938 0.76562 0.32812 0.1875 0.21094 0.28125 0.51172 0.28125 0.90625v1.8281h-0.96875v-1.5625c0.007813-0.019531 0.015625-0.039062 0.015625-0.0625v-0.10938c0-0.21875-0.03125-0.375-0.09375-0.46875s-0.16406-0.14062-0.29688-0.14062c-0.1875 0-0.33594 0.078125-0.4375 0.23438-0.09375 0.14844-0.14062 0.35938-0.14062 0.64062v1.4688h-0.96875v-1.5625c0-0.33203-0.03125-0.54688-0.09375-0.64062-0.054688-0.09375-0.15234-0.14062-0.29688-0.14062-0.17969 0-0.32031 0.078125-0.42188 0.23438-0.09375 0.14844-0.14062 0.35938-0.14062 0.64062v1.4688h-0.96875v-2.9844h0.96875v0.4375c0.11328-0.17578 0.24219-0.30469 0.39062-0.39062 0.15625-0.082031 0.32812-0.125 0.51562-0.125 0.20703 0 0.39062 0.054688 0.54688 0.15625 0.15625 0.09375 0.27344 0.23047 0.35938 0.40625z"/>
  </symbol>
  <symbol id="p" overflow="visible">
   <path d="m3.4688-1.8281v1.8281h-0.96875v-1.3906c0-0.25781-0.007812-0.4375-0.015625-0.53125-0.011719-0.10156-0.03125-0.17578-0.0625-0.21875-0.03125-0.0625-0.085937-0.10938-0.15625-0.14062-0.0625-0.039062-0.13281-0.0625-0.20312-0.0625-0.21094 0-0.37109 0.078125-0.48438 0.23438-0.10547 0.15625-0.15625 0.37109-0.15625 0.64062v1.4688h-0.96875v-4.1562h0.96875v1.6094c0.13281-0.17578 0.28516-0.30469 0.45312-0.39062 0.16406-0.082031 0.34375-0.125 0.53125-0.125 0.34375 0 0.60156 0.10938 0.78125 0.32812 0.1875 0.21094 0.28125 0.51172 0.28125 0.90625z"/>
  </symbol>
  <symbol id="o" overflow="visible">
   <path d="m0.5-3.9844h1.1562l1.4375 2.7344v-2.7344h0.98438v3.9844h-1.1562l-1.4375-2.7344v2.7344h-0.98438z"/>
  </symbol>
  <symbol id="n" overflow="visible">
   <path d="m0.42188-1.1719v-1.8125h0.96875v0.29688 0.60938 0.48438c0 0.24219 0.003906 0.41797 0.015625 0.53125 0.007812 0.10547 0.03125 0.17969 0.0625 0.21875 0.039062 0.0625 0.09375 0.11719 0.15625 0.15625 0.0625 0.03125 0.13281 0.046875 0.21875 0.046875 0.19531 0 0.35156-0.078125 0.46875-0.23438 0.11328-0.15625 0.17188-0.36719 0.17188-0.64062v-1.4688h0.95312v2.9844h-0.95312v-0.4375c-0.14844 0.17969-0.30469 0.30859-0.46875 0.39062-0.15625 0.082031-0.33594 0.125-0.53125 0.125-0.34375 0-0.60938-0.10156-0.79688-0.3125-0.17969-0.21875-0.26562-0.53125-0.26562-0.9375z"/>
  </symbol>
  <symbol id="m" overflow="visible">
   <path d="m0.5-3.9844h1.7031c0.50781 0 0.89844 0.11719 1.1719 0.34375 0.26953 0.21875 0.40625 0.53906 0.40625 0.95312 0 0.41797-0.13672 0.74219-0.40625 0.96875-0.27344 0.21875-0.66406 0.32812-1.1719 0.32812h-0.67188v1.3906h-1.0312zm1.0312 0.75v1.1094h0.5625c0.19531 0 0.34766-0.046875 0.45312-0.14062 0.11328-0.10156 0.17188-0.24219 0.17188-0.42188 0-0.17578-0.058594-0.3125-0.17188-0.40625-0.10547-0.09375-0.25781-0.14062-0.45312-0.14062z"/>
  </symbol>
  <symbol id="l" overflow="visible">
   <path d="m0.45312-2.9844h0.96875v2.9375c0 0.39453-0.10156 0.69531-0.29688 0.90625-0.1875 0.21875-0.46484 0.32812-0.82812 0.32812h-0.48438v-0.64062h0.17188c0.17578 0 0.29688-0.042969 0.35938-0.125 0.070312-0.074219 0.10938-0.23047 0.10938-0.46875zm0-1.1719h0.96875v0.78125h-0.96875z"/>
  </symbol>
 </defs>
 <g>
  <path d="m183.75 61.25c0 4.832-3.918 8.75-8.75 8.75s-8.75-3.918-8.75-8.75 3.918-8.75 8.75-8.75 8.75 3.918 8.75 8.75"/>
  <path d="m218.75 61.25c0 4.832-3.918 8.75-8.75 8.75s-8.75-3.918-8.75-8.75 3.918-8.75 8.75-8.75 8.75 3.918 8.75 8.75"/>
  <path d="m253.75 61.25c0 4.832-3.918 8.75-8.75 8.75s-8.75-3.918-8.75-8.75 3.918-8.75 8.75-8.75 8.75 3.918 8.75 8.75"/>
  <path d="m385 140h87.5c4.832 0 8.75-3.918 8.75-8.75s-3.918-8.75-8.75-8.75h-87.5c-4.832 0-8.75 3.918-8.75 8.75s3.918 8.75 8.75 8.75z"/>
  <path d="m385 175h87.5c4.832 0 8.75-3.918 8.75-8.75s-3.918-8.75-8.75-8.75h-87.5c-4.832 0-8.75 3.918-8.75 8.75s3.918 8.75 8.75 8.75z"/>
  <path d="m140 437.5h128.79l-13.125 52.5h-28.168c-11.598 0.011719-22.719 4.625-30.922 12.828s-12.816 19.324-12.828 30.922c0 2.3203 0.92188 4.5469 2.5625 6.1875s3.8672 2.5625 6.1875 2.5625h262.5c2.3203 0 4.5469-0.92188 6.1875-2.5625s2.5625-3.8672 2.5625-6.1875c-0.011719-11.598-4.625-22.719-12.828-30.922s-19.324-12.816-30.922-12.828h-28.168l-8.7578-35.023c0.64062 0.007813 1.2812 0.023438 1.9297 0.023438h-0.003906c25.363 0.027344 50.188-7.3359 71.434-21.195l29.992 29.992v0.003906c-2.7227 3.4805-2.4219 8.4453 0.69922 11.574l56.875 56.875c8.8438 8.8398 21.73 12.293 33.809 9.0586 12.078-3.2383 21.512-12.672 24.75-24.75 3.2344-12.078-0.21875-24.965-9.0586-33.809l-56.555-56.555c9.1484-8.3008 14.348-20.09 14.305-32.445v-202.55l0.125-0.15625c8.0391 2.8008 16.938 1.5273 23.871-3.4102 6.9297-4.9414 11.039-12.934 11.016-21.445-0.019531-8.5117-4.168-16.488-11.125-21.391-6.9609-4.9023-15.863-6.1289-23.887-3.2891v-10.254c-0.011719-10.082-3.5-19.848-9.8789-27.66-6.375-7.8086-15.246-13.18-25.121-15.211v-44.629c-0.007812-6.9609-2.7773-13.633-7.6992-18.551-4.918-4.9219-11.59-7.6914-18.551-7.6992h-332.5c-6.9609 0.007812-13.633 2.7773-18.551 7.6992-4.9219 4.918-7.6914 11.59-7.6992 18.551v44.629c-9.875 2.0312-18.746 7.4023-25.121 15.211-6.3789 7.8125-9.8672 17.578-9.8789 27.66v262.5c0.011719 11.598 4.625 22.719 12.828 30.922s19.324 12.816 30.922 12.828zm420-280c3.5391 0 6.7305 2.1328 8.082 5.4023 1.3555 3.2695 0.60938 7.0312-1.8945 9.5352s-6.2656 3.25-9.5352 1.8945c-3.2695-1.3516-5.4023-4.543-5.4023-8.082 0.003906-4.832 3.918-8.7461 8.75-8.75zm-140 350c5.4258 0.007812 10.719 1.6914 15.152 4.8242 4.4297 3.1328 7.7812 7.5625 9.5977 12.676h-242c1.8164-5.1133 5.168-9.543 9.5977-12.676 4.4336-3.1328 9.7266-4.8164 15.152-4.8242zm-146.29-17.5 13.125-52.5h32.746c13.91 8.0391 29.188 13.438 45.062 15.918l9.1523 36.582zm111.29-52.5c-38.035 0.003906-73.551-19.004-94.652-50.652-21.098-31.645-24.984-71.742-10.355-106.85 14.629-35.109 45.84-60.582 83.164-67.883 37.328-7.3047 75.832 4.5352 102.61 31.543-2.8711 6.8867-2.6719 14.668 0.54688 21.398l-2.9141 2.9141v0.003906c-19.281-27.004-51.152-42.121-84.262-39.969-33.109 2.1523-62.754 21.27-78.375 50.543-15.621 29.273-15 64.543 1.6445 93.246 16.645 28.703 46.945 46.762 80.113 47.746 33.164 0.98047 64.48-15.25 82.797-42.918 18.312-27.668 21.023-62.84 7.1641-92.984l6.207-6.2031v-0.003906c3.5273 1.6953 7.3945 2.5703 11.309 2.5664h0.035156c5.793 13.855 8.7539 28.73 8.7148 43.75-0.035156 30.156-12.031 59.07-33.355 80.395s-50.238 33.32-80.395 33.355zm-123.74-157.5h-7.5078v-105h17.5v83.328c-3.9844 6.9023-7.332 14.156-9.9922 21.672zm27.492-45.379v-77.121h17.5v61.316c-6.293 4.7383-12.148 10.023-17.5 15.805zm35-26.918v-67.703h17.5v60.008c-6.0117 2.1328-11.863 4.707-17.5 7.6953zm96.25 89.797c-5.4258 0.007812-10.719 1.6914-15.148 4.8242-4.4297 3.1367-7.7812 7.5625-9.5977 12.676h-20.508c-2.7773-7.8477-9.1094-13.914-17.066-16.352-7.9609-2.4336-16.602-0.95313-23.293 3.9961-6.6914 4.9531-10.641 12.781-10.641 21.105s3.9492 16.152 10.641 21.105c6.6914 4.9492 15.332 6.4297 23.293 3.9961 7.957-2.4375 14.289-8.5039 17.066-16.352h20.512-0.003906c2.3906 6.8047 7.4766 12.328 14.059 15.27 6.5859 2.9453 14.094 3.0469 20.758 0.28516 6.6602-2.7578 11.895-8.1406 14.473-14.875 2.5742-6.7383 2.2656-14.238-0.85938-20.738l15.395-15.395v-0.003906c9.2656 25.504 4.7969 53.98-11.836 75.418-16.633 21.438-43.102 32.844-70.109 30.211-27.008-2.6367-50.773-18.941-62.949-43.191-12.176-24.25-11.055-53.051 2.9609-76.285 14.02-23.23 38.977-37.648 66.105-38.18 27.133-0.53516 52.637 12.891 67.559 35.555l-19.496 19.496h-0.003906c-3.5273-1.6953-7.3945-2.5703-11.309-2.5664zm8.75 26.25c0 3.5391-2.1328 6.7305-5.4023 8.082-3.2695 1.3555-7.0312 0.60938-9.5352-1.8945s-3.25-6.2656-1.8945-9.5352c1.3516-3.2695 4.543-5.4023 8.082-5.4023 4.832 0.003906 8.7461 3.918 8.75 8.75zm-70 0c0 3.5391-2.1328 6.7305-5.4023 8.082-3.2695 1.3555-7.0312 0.60938-9.5352-1.8945s-3.25-6.2656-1.8945-9.5352c1.3516-3.2695 4.543-5.4023 8.082-5.4023 4.832 0.003906 8.7461 3.918 8.75 8.75zm122.5-70c0-3.5391 2.1328-6.7305 5.4023-8.082 3.2695-1.3555 7.0312-0.60938 9.5352 1.8945s3.25 6.2656 1.8945 9.5352c-1.3516 3.2695-4.543 5.4023-8.082 5.4023-4.832-0.003906-8.7461-3.918-8.75-8.75zm-10.684 169.44c4.9609-4.2734 9.6016-8.9141 13.875-13.875l28.184 28.184-13.875 13.875zm110.56 71.934c3.3125 3.2734 5.1875 7.7383 5.1992 12.395 0.015625 4.6602-1.8281 9.1328-5.125 12.43-3.293 3.293-7.7656 5.1406-12.426 5.125-4.6602-0.011719-9.1211-1.8867-12.398-5.1992l-50.688-50.688 24.75-24.75zm-64.875-388.62c5.1133 1.8164 9.5391 5.168 12.676 9.5977 3.1328 4.4297 4.8164 9.7227 4.8242 15.148v53.805l-17.5 21.875zm0 217.25v-88.805l17.5-21.875v136.93h-20.141c1.7617-8.6406 2.6445-17.434 2.6406-26.25zm-7.5078 43.75h25.008v26.25c0.023438 5.1562-1.4766 10.199-4.3164 14.504-2.8398 4.3008-6.8906 7.6641-11.641 9.668l-22.738-22.738c5.6406-8.6523 10.234-17.949 13.688-27.684zm-359.99-323.75c0.003906-4.832 3.918-8.7461 8.75-8.75h332.5c4.832 0.003906 8.7461 3.918 8.75 8.75v43.75h-350zm0 61.25h350v123.8l-0.125 0.15625c-6.9648-2.4297-14.629-1.8086-21.109 1.7031-8.0898-8.0352-17.188-14.98-27.07-20.664h22.055c4.832 0 8.75-3.918 8.75-8.75s-3.918-8.75-8.75-8.75h-87.5c-8.8164-0.003906-17.609 0.87891-26.25 2.6406v-63.891c0-2.3203-0.92188-4.5469-2.5625-6.1875s-3.8672-2.5625-6.1875-2.5625h-35c-4.832 0-8.75 3.918-8.75 8.75v8.75h-26.25c-4.832 0-8.75 3.918-8.75 8.75v8.75h-26.25c-4.832 0-8.75 3.918-8.75 8.75v8.75h-26.25c-4.832 0-8.75 3.918-8.75 8.75v8.75h-26.25c-4.832 0-8.75 3.918-8.75 8.75v87.5c0 2.3203 0.92188 4.5469 2.5625 6.1875s3.8672 2.5625 6.1875 2.5625h81.391c-1.1758 5.7734-1.957 11.621-2.3438 17.5h-96.547c-4.832-0.003906-8.7461-3.918-8.75-8.75zm87.5 87.5v87.5h-17.5v-87.5zm-35 17.5v70h-17.5v-70zm-87.5-78.75c0.007812-5.4258 1.6914-10.719 4.8242-15.148 3.1367-4.4297 7.5625-7.7812 12.676-9.5977v199.75c0.007812 6.9609 2.7773 13.633 7.6992 18.551 4.918 4.9219 11.59 7.6914 18.551 7.6992h96.547c0.38672 5.8789 1.168 11.727 2.3438 17.5h-142.64zm0 236.25h147.51c7.125 20.039 19.004 38.055 34.613 52.5h-155.87c-6.9609-0.007812-13.633-2.7773-18.555-7.6953-4.918-4.9219-7.6875-11.594-7.6953-18.555z"/>
  <use x="70" y="576.40625" xlink:href="#t"/>
  <use x="74.011719" y="576.40625" xlink:href="#b"/>
  <use x="76.710938" y="576.40625" xlink:href="#a"/>
  <use x="80.417969" y="576.40625" xlink:href="#f"/>
  <use x="84.109375" y="576.40625" xlink:href="#d"/>
  <use x="86.722656" y="576.40625" xlink:href="#a"/>
  <use x="90.433594" y="576.40625" xlink:href="#k"/>
  <use x="96.25" y="576.40625" xlink:href="#j"/>
  <use x="100.167969" y="576.40625" xlink:href="#i"/>
  <use x="105.636719" y="576.40625" xlink:href="#e"/>
  <use x="107.507812" y="576.40625" xlink:href="#h"/>
  <use x="110.75" y="576.40625" xlink:href="#c"/>
  <use x="114.507812" y="576.40625" xlink:href="#g"/>
  <use x="118.402344" y="576.40625" xlink:href="#e"/>
  <use x="120.277344" y="576.40625" xlink:href="#s"/>
  <use x="123.804688" y="576.40625" xlink:href="#f"/>
  <use x="127.492188" y="576.40625" xlink:href="#b"/>
  <use x="70" y="581.875" xlink:href="#r"/>
  <use x="72.378906" y="581.875" xlink:href="#b"/>
  <use x="75.078125" y="581.875" xlink:href="#c"/>
  <use x="78.832031" y="581.875" xlink:href="#q"/>
  <use x="86.4375" y="581.875" xlink:href="#d"/>
  <use x="89.050781" y="581.875" xlink:href="#p"/>
  <use x="92.941406" y="581.875" xlink:href="#a"/>
  <use x="98.554688" y="581.875" xlink:href="#o"/>
  <use x="103.132812" y="581.875" xlink:href="#c"/>
  <use x="106.890625" y="581.875" xlink:href="#n"/>
  <use x="110.785156" y="581.875" xlink:href="#g"/>
  <use x="116.582031" y="581.875" xlink:href="#m"/>
  <use x="120.589844" y="581.875" xlink:href="#b"/>
  <use x="123.285156" y="581.875" xlink:href="#c"/>
  <use x="127.042969" y="581.875" xlink:href="#l"/>
  <use x="128.917969" y="581.875" xlink:href="#a"/>
  <use x="132.625" y="581.875" xlink:href="#h"/>
  <use x="135.867188" y="581.875" xlink:href="#d"/>
 </g>
</svg>
